<mxfile host="app.diagrams.net" agent="Mozilla/5.0 (Macintosh; Intel Mac OS X 10_15_7) AppleWebKit/537.36 (KHTML, like Gecko) Chrome/134.0.0.0 Safari/537.36" version="27.0.3">
  <diagram name="Page-1" id="wQqvjwpL760c3gJhuFDy">
    <mxGraphModel dx="740" dy="529" grid="0" gridSize="10" guides="1" tooltips="1" connect="1" arrows="1" fold="1" page="1" pageScale="1" pageWidth="850" pageHeight="1100" background="light-dark(#FFFFFF,#FFFFFF)" math="0" shadow="1">
      <root>
        <mxCell id="0" />
        <mxCell id="1" parent="0" />
        <mxCell id="OYJygsiOitk__WGoNxxW-2" value="" style="ellipse;whiteSpace=wrap;html=1;fillColor=light-dark(#FFFFFF,#E2928F);strokeColor=light-dark(#000000,#010101);strokeWidth=2;comic=0;enumerate=0;treeMoving=0;treeFolding=0;deletable=1;cloneable=1;rotatable=1;resizeHeight=0;resizable=1;fixedWidth=0;autosize=0;movableLabel=0;backgroundOutline=0;metaEdit=0;editable=1;movable=1;locked=0;connectable=1;collapsible=0;dropTarget=0;container=0;fixDash=0;snapToPoint=0;allowArrows=1;portConstraintRotation=0;noLabel=0;points=[[0,0,0,0,0],[0,0.5,0,0,0],[0,1,0,0,0],[0.5,0,0,0,0],[0.5,1,0,0,0],[1,0,0,0,0],[1,0.5,0,0,0],[1,1,0,0,0]];opacity=40;" vertex="1" parent="1">
          <mxGeometry x="218" y="160" width="362" height="200" as="geometry" />
        </mxCell>
        <mxCell id="OYJygsiOitk__WGoNxxW-1" value="" style="ellipse;whiteSpace=wrap;html=1;fillColor=light-dark(#FFFFFF,#89B1AA);strokeColor=light-dark(#000000,#202020);strokeWidth=2;opacity=40;gradientColor=none;" vertex="1" parent="1">
          <mxGeometry x="80" y="160" width="370" height="200" as="geometry" />
        </mxCell>
        <mxCell id="OYJygsiOitk__WGoNxxW-9" value="&lt;font style=&quot;color: light-dark(rgb(0, 0, 0), rgb(80, 80, 80));&quot;&gt;Top 25% ranked genes by Mann--Whitney U Test&lt;/font&gt;" style="text;html=1;align=center;verticalAlign=middle;resizable=0;points=[];autosize=1;strokeColor=none;fillColor=none;fontFamily=Helvetica;fontSize=14;fontColor=default;" vertex="1" parent="1">
          <mxGeometry x="15" y="108" width="330" height="30" as="geometry" />
        </mxCell>
        <mxCell id="OYJygsiOitk__WGoNxxW-10" value="&lt;span style=&quot;font-family: Helvetica; font-style: normal; font-variant-ligatures: normal; font-variant-caps: normal; font-weight: 400; letter-spacing: normal; orphans: 2; text-align: center; text-indent: 0px; text-transform: none; widows: 2; word-spacing: 0px; -webkit-text-stroke-width: 0px; white-space: nowrap; text-decoration-thickness: initial; text-decoration-style: initial; text-decoration-color: initial; float: none; display: inline !important;&quot;&gt;Top 25% ranked genes by Random Forest Model&lt;/span&gt;" style="text;whiteSpace=wrap;html=1;fontFamily=Helvetica;fontSize=14;fontColor=light-dark(#000000,#505050);labelBackgroundColor=none;" vertex="1" parent="1">
          <mxGeometry x="360" y="108" width="310" height="40" as="geometry" />
        </mxCell>
        <mxCell id="OYJygsiOitk__WGoNxxW-14" value="" style="shape=flexArrow;endArrow=classic;html=1;rounded=0;fontFamily=Helvetica;fontSize=12;fontColor=default;curved=1;exitX=0.417;exitY=1.033;exitDx=0;exitDy=0;exitPerimeter=0;strokeColor=light-dark(#000000,#7E7E7E);strokeWidth=2;" edge="1" parent="1" source="OYJygsiOitk__WGoNxxW-9" target="OYJygsiOitk__WGoNxxW-1">
          <mxGeometry width="50" height="50" relative="1" as="geometry">
            <mxPoint x="350" y="340" as="sourcePoint" />
            <mxPoint x="400" y="290" as="targetPoint" />
          </mxGeometry>
        </mxCell>
        <mxCell id="OYJygsiOitk__WGoNxxW-16" value="" style="shape=flexArrow;endArrow=classic;html=1;rounded=0;fontFamily=Helvetica;fontSize=12;fontColor=default;curved=1;exitX=0.417;exitY=1.033;exitDx=0;exitDy=0;exitPerimeter=0;strokeColor=light-dark(#000000,#7E7E7E);strokeWidth=2;" edge="1" parent="1">
          <mxGeometry width="50" height="50" relative="1" as="geometry">
            <mxPoint x="499" y="138" as="sourcePoint" />
            <mxPoint x="470" y="169" as="targetPoint" />
          </mxGeometry>
        </mxCell>
        <mxCell id="OYJygsiOitk__WGoNxxW-17" value="" style="shape=flexArrow;endArrow=classic;html=1;rounded=0;fontFamily=Helvetica;fontSize=12;fontColor=default;curved=1;strokeColor=light-dark(#000000,#7E7E7E);strokeWidth=2;" edge="1" parent="1">
          <mxGeometry width="50" height="50" relative="1" as="geometry">
            <mxPoint x="333" y="403" as="sourcePoint" />
            <mxPoint x="333" y="352" as="targetPoint" />
          </mxGeometry>
        </mxCell>
        <mxCell id="OYJygsiOitk__WGoNxxW-18" value="&lt;font style=&quot;color: light-dark(rgb(0, 0, 0), rgb(80, 80, 80));&quot;&gt;Consensus biomarkers prioritized by both methods&lt;/font&gt;" style="text;html=1;align=center;verticalAlign=middle;resizable=0;points=[];autosize=1;strokeColor=none;fillColor=none;fontFamily=Helvetica;fontSize=14;fontColor=default;" vertex="1" parent="1">
          <mxGeometry x="165" y="400" width="340" height="30" as="geometry" />
        </mxCell>
        <mxCell id="OYJygsiOitk__WGoNxxW-19" value="&lt;font style=&quot;font-size: 13px; color: light-dark(rgb(0, 0, 0), rgb(96, 96, 96));&quot;&gt;CD177&lt;/font&gt;" style="text;html=1;align=center;verticalAlign=middle;resizable=0;points=[];autosize=1;strokeColor=none;fillColor=none;fontFamily=Helvetica;fontSize=12;fontColor=default;" vertex="1" parent="1">
          <mxGeometry x="300" y="180" width="60" height="30" as="geometry" />
        </mxCell>
        <mxCell id="OYJygsiOitk__WGoNxxW-20" value="&lt;font style=&quot;font-size: 13px; color: light-dark(rgb(0, 0, 0), rgb(96, 96, 96));&quot;&gt;GATA3&lt;/font&gt;" style="text;html=1;align=center;verticalAlign=middle;resizable=0;points=[];autosize=1;strokeColor=none;fillColor=none;fontFamily=Helvetica;fontSize=12;fontColor=default;" vertex="1" parent="1">
          <mxGeometry x="355" y="207" width="60" height="30" as="geometry" />
        </mxCell>
        <mxCell id="OYJygsiOitk__WGoNxxW-21" value="&lt;font style=&quot;font-size: 13px;&quot;&gt;HLA-DRA&lt;/font&gt;" style="text;html=1;align=center;verticalAlign=middle;resizable=0;points=[];autosize=1;strokeColor=none;fillColor=none;fontFamily=Helvetica;fontSize=12;fontColor=light-dark(#000000,#606060);" vertex="1" parent="1">
          <mxGeometry x="239" y="206" width="80" height="30" as="geometry" />
        </mxCell>
        <mxCell id="OYJygsiOitk__WGoNxxW-22" value="&lt;font style=&quot;font-size: 13px;&quot;&gt;IL10&lt;/font&gt;" style="text;html=1;align=center;verticalAlign=middle;resizable=0;points=[];autosize=1;strokeColor=none;fillColor=none;fontFamily=Helvetica;fontSize=12;fontColor=light-dark(#000000,#606060);" vertex="1" parent="1">
          <mxGeometry x="310" y="266" width="50" height="30" as="geometry" />
        </mxCell>
        <mxCell id="OYJygsiOitk__WGoNxxW-23" value="&lt;font style=&quot;font-size: 13px;&quot;&gt;MAPK14&lt;/font&gt;" style="text;html=1;align=center;verticalAlign=middle;resizable=0;points=[];autosize=1;strokeColor=none;fillColor=none;fontFamily=Helvetica;fontSize=12;fontColor=light-dark(#000000,#606060);" vertex="1" parent="1">
          <mxGeometry x="228" y="249" width="70" height="30" as="geometry" />
        </mxCell>
        <mxCell id="OYJygsiOitk__WGoNxxW-24" value="&lt;font style=&quot;font-size: 13px; color: light-dark(rgb(0, 0, 0), rgb(96, 96, 96));&quot;&gt;MMP9&lt;/font&gt;" style="text;html=1;align=center;verticalAlign=middle;resizable=0;points=[];autosize=1;strokeColor=none;fillColor=none;fontFamily=Helvetica;fontSize=12;fontColor=default;" vertex="1" parent="1">
          <mxGeometry x="388" y="251" width="60" height="30" as="geometry" />
        </mxCell>
        <mxCell id="OYJygsiOitk__WGoNxxW-25" value="&lt;font style=&quot;font-size: 13px; color: light-dark(rgb(0, 0, 0), rgb(96, 96, 96));&quot;&gt;S100A12&lt;/font&gt;" style="text;html=1;align=center;verticalAlign=middle;resizable=0;points=[];autosize=1;strokeColor=none;fillColor=none;fontFamily=Helvetica;fontSize=12;fontColor=default;" vertex="1" parent="1">
          <mxGeometry x="345" y="291" width="80" height="30" as="geometry" />
        </mxCell>
        <mxCell id="OYJygsiOitk__WGoNxxW-26" value="&lt;font style=&quot;font-size: 13px;&quot;&gt;S100A8&lt;/font&gt;" style="text;html=1;align=center;verticalAlign=middle;resizable=0;points=[];autosize=1;strokeColor=none;fillColor=none;fontFamily=Helvetica;fontSize=12;fontColor=light-dark(#000000,#606060);" vertex="1" parent="1">
          <mxGeometry x="247" y="288" width="70" height="30" as="geometry" />
        </mxCell>
        <mxCell id="OYJygsiOitk__WGoNxxW-28" value="&lt;font style=&quot;font-size: 13px; color: light-dark(rgb(0, 0, 0), rgb(96, 96, 96));&quot;&gt;SOCS3&lt;/font&gt;" style="text;html=1;align=center;verticalAlign=middle;resizable=0;points=[];autosize=1;strokeColor=none;fillColor=none;fontFamily=Helvetica;fontSize=12;fontColor=default;" vertex="1" parent="1">
          <mxGeometry x="300" y="230" width="70" height="30" as="geometry" />
        </mxCell>
        <mxCell id="OYJygsiOitk__WGoNxxW-29" value="&lt;font style=&quot;font-size: 13px; color: light-dark(rgb(0, 0, 0), rgb(96, 96, 96));&quot;&gt;CCR7&lt;/font&gt;" style="text;html=1;align=center;verticalAlign=middle;resizable=0;points=[];autosize=1;strokeColor=none;fillColor=none;fontFamily=Helvetica;fontSize=12;fontColor=default;" vertex="1" parent="1">
          <mxGeometry x="300" y="311" width="60" height="30" as="geometry" />
        </mxCell>
        <mxCell id="OYJygsiOitk__WGoNxxW-30" value="&lt;font style=&quot;font-size: 14px; color: light-dark(rgb(0, 0, 0), rgb(124, 80, 79));&quot;&gt;S100A9&lt;/font&gt;" style="text;html=1;align=center;verticalAlign=middle;resizable=0;points=[];autosize=1;strokeColor=none;fillColor=none;fontFamily=Helvetica;fontSize=12;fontColor=light-dark(#000000,#606060);" vertex="1" parent="1">
          <mxGeometry x="470" y="280" width="70" height="30" as="geometry" />
        </mxCell>
        <mxCell id="OYJygsiOitk__WGoNxxW-31" value="&lt;font style=&quot;font-size: 14px;&quot;&gt;ARG1&lt;/font&gt;" style="text;html=1;align=center;verticalAlign=middle;resizable=0;points=[];autosize=1;strokeColor=none;fillColor=none;fontFamily=Helvetica;fontSize=12;fontColor=light-dark(#000000,#3F6A63);" vertex="1" parent="1">
          <mxGeometry x="115" y="220" width="60" height="30" as="geometry" />
        </mxCell>
        <mxCell id="OYJygsiOitk__WGoNxxW-32" value="&lt;font style=&quot;font-size: 14px;&quot;&gt;C3AR1&lt;/font&gt;" style="text;html=1;align=center;verticalAlign=middle;resizable=0;points=[];autosize=1;strokeColor=none;fillColor=none;fontFamily=Helvetica;fontSize=12;fontColor=light-dark(#000000,#3F6A63);" vertex="1" parent="1">
          <mxGeometry x="110" y="280" width="70" height="30" as="geometry" />
        </mxCell>
        <mxCell id="OYJygsiOitk__WGoNxxW-33" value="&lt;font style=&quot;font-size: 14px; color: light-dark(rgb(0, 0, 0), rgb(124, 80, 79));&quot;&gt;BCL2&lt;/font&gt;" style="text;html=1;align=center;verticalAlign=middle;resizable=0;points=[];autosize=1;strokeColor=none;fillColor=none;fontFamily=Helvetica;fontSize=12;fontColor=light-dark(#000000,#606060);" vertex="1" parent="1">
          <mxGeometry x="475" y="220" width="60" height="30" as="geometry" />
        </mxCell>
      </root>
    </mxGraphModel>
  </diagram>
</mxfile>
